<?xml version="1.0" standalone="no"?>
<!DOCTYPE svg PUBLIC "-//W3C//DTD SVG 20010904//EN"
 "http://www.w3.org/TR/2001/REC-SVG-20010904/DTD/svg10.dtd">
<svg version="1.0" xmlns="http://www.w3.org/2000/svg"
 width="512.000000pt" height="512.000000pt" viewBox="0 0 512.000000 512.000000"
 preserveAspectRatio="xMidYMid meet">

<g transform="translate(0.000000,512.000000) scale(0.100000,-0.100000)"
fill="#000000" stroke="none">
<path d="M1639 3992 c-134 -86 -1228 -847 -1246 -868 l-23 -25 0 -1008 0
-1007 28 -27 28 -27 2150 0 2150 0 27 28 27 28 0 1005 c0 875 -2 1007 -15
1026 -13 19 -1226 862 -1282 892 -16 8 -262 11 -910 11 l-889 0 -45 -28z
m1477 -458 c307 -212 561 -388 563 -390 2 -2 -155 -4 -350 -4 l-354 0 -185
129 c-102 70 -356 246 -564 389 l-379 262 355 0 355 0 559 -386z m888 -1 l561
-388 -351 -3 -352 -2 -558 385 c-307 212 -560 388 -562 390 -3 3 153 5 347 5
l353 0 562 -387z m-2139 254 l160 -112 3 -268 2 -267 -340 0 -340 0 0 268 1
267 162 112 c89 62 169 112 177 112 8 0 87 -50 175 -112z m-618 -644 c-2 -2
-152 -2 -333 -1 l-329 3 330 228 330 227 3 -226 c1 -125 1 -229 -1 -231z
m1218 229 c171 -118 314 -218 320 -223 5 -5 -124 -9 -323 -9 l-332 0 0 231 c0
181 3 229 13 223 6 -5 152 -104 322 -222z m-825 -582 l0 -250 -174 0 -175 0
-20 -26 c-19 -24 -21 -40 -21 -165 l0 -139 -390 0 -390 0 0 415 0 415 585 0
585 0 0 -250z m1270 -165 l0 -415 -390 0 -390 0 0 138 0 138 -28 27 -28 27
-167 0 -167 0 0 250 0 250 585 0 585 0 0 -415z m890 -451 c0 -476 -3 -864 -7
-862 -92 47 -110 52 -225 56 l-118 4 0 68 0 67 65 6 c134 13 220 94 240 227 6
41 4 47 -24 74 -29 28 -32 28 -113 24 -59 -3 -95 -11 -125 -26 l-43 -22 0 33
c0 46 -45 131 -88 167 -49 41 -113 60 -196 60 -88 0 -116 -21 -116 -84 2 -127
101 -228 239 -242 l61 -7 0 -172 0 -172 -118 -5 c-102 -4 -125 -9 -170 -31
l-52 -26 0 864 0 865 395 0 395 0 0 -866z m880 1 l0 -864 -52 26 c-45 22 -68
27 -170 31 l-118 5 0 68 0 69 38 0 c58 0 133 26 174 60 80 66 115 202 63 250
-22 21 -31 22 -108 18 -56 -3 -97 -11 -124 -24 l-41 -21 -6 40 c-13 80 -72
158 -145 193 -22 11 -69 19 -121 22 -84 4 -85 4 -114 -27 -29 -30 -29 -31 -17
-88 26 -129 132 -213 271 -213 l30 0 0 -174 0 -173 -118 -5 c-114 -5 -135 -10
-224 -56 -5 -2 -8 386 -8 862 l0 866 395 0 395 0 0 -865z m-2652 -387 l-3
-653 -337 -3 -338 -2 0 655 0 655 340 0 340 0 -2 -652z m-778 -76 l0 -399 -51
26 c-45 21 -69 26 -170 29 l-119 4 0 69 0 69 38 0 c59 0 139 28 177 61 48 43
74 88 86 154 10 56 10 58 -18 87 -28 29 -29 30 -113 26 -62 -3 -97 -10 -127
-26 l-43 -22 0 33 c0 46 -45 131 -88 167 -49 41 -113 60 -196 60 -89 0 -116
-20 -116 -87 0 -124 101 -225 239 -239 l61 -7 0 -172 0 -172 -120 -5 c-104 -4
-127 -9 -170 -31 l-50 -26 0 399 0 400 390 0 390 0 0 -398z m1660 -2 l0 -400
-52 26 c-46 23 -69 28 -170 32 l-118 5 0 68 0 69 38 0 c134 0 246 97 259 222
5 49 3 55 -25 82 -30 28 -34 28 -110 24 -51 -3 -94 -12 -120 -25 l-41 -20 -7
41 c-9 55 -35 104 -76 142 -54 51 -95 67 -186 72 -80 4 -84 4 -113 -24 -33
-32 -35 -49 -13 -125 31 -103 139 -179 256 -179 l38 0 0 -174 0 -174 -119 -4
c-101 -3 -125 -8 -170 -29 l-51 -26 0 399 0 398 390 0 390 0 0 -400z m-2197
226 c36 -14 87 -69 87 -92 0 -10 -13 -14 -49 -14 -39 0 -56 6 -81 26 -27 23
-60 72 -60 89 0 10 71 5 103 -9z m1684 -11 c22 -15 63 -71 63 -87 0 -14 -91
-8 -121 7 -30 16 -69 68 -69 94 0 18 93 8 127 -14z m870 4 c31 -15 50 -33 64
-61 l21 -41 -61 5 c-50 3 -66 9 -91 33 -16 15 -34 41 -39 56 -10 28 -9 29 26
29 20 0 56 -9 80 -21z m864 11 c38 -11 83 -52 94 -87 6 -22 3 -23 -42 -23 -30
0 -59 7 -77 19 -30 20 -66 68 -66 89 0 15 41 16 91 2z m-3021 -212 c0 -25 -40
-77 -69 -93 -17 -8 -52 -18 -77 -22 l-47 -6 7 29 c4 16 17 39 30 52 39 40 156
70 156 40z m1649 -18 c-17 -48 -70 -87 -129 -95 -28 -4 -54 -5 -56 -2 -10 9
34 82 58 96 26 17 71 28 110 30 26 1 26 0 17 -29z m891 18 c0 -25 -40 -77 -69
-93 -41 -21 -121 -32 -121 -16 0 18 26 66 44 80 39 33 146 53 146 29z m890 3
c0 -15 -44 -74 -70 -92 -14 -10 -49 -21 -77 -25 l-53 -7 11 30 c14 41 60 84
101 93 46 11 88 12 88 1z m-3387 -485 c39 -16 87 -70 87 -97 0 -18 -12 -19
-380 -19 -417 0 -400 -3 -357 60 45 67 61 70 355 70 199 0 271 -3 295 -14z
m1666 -6 c36 -18 81 -73 81 -99 0 -8 -105 -11 -385 -11 -212 0 -385 4 -385 9
0 18 47 77 79 98 33 23 40 23 303 23 248 0 272 -2 307 -20z m879 6 c35 -18 68
-54 81 -88 l11 -28 -385 0 c-304 0 -385 3 -385 13 0 24 49 84 82 100 28 14 73
17 301 17 211 0 274 -3 295 -14z m892 -5 c36 -18 80 -73 80 -97 0 -12 -68 -14
-385 -14 l-385 0 11 27 c13 35 36 61 74 84 27 17 55 19 300 19 244 0 274 -2
305 -19z"/>
</g>
</svg>
